name C:\Users\u0101727\Documents\MyRepositories\upper-imu-dc\OpenSim\subject0\MA\MA_Splines\angle_in_n6_dof6_3.mot
datacolumns 7
datarows 81
range 325.01000000 325.81000000
endheader 
time	clav_prot	clav_elev	scapula_abduction	scapula_elevation	scapula_upward_rot	scapula_winging	
        325.01000000	        -22.39390379	         11.96046367	        -14.01721834	         -7.82036939	         23.68359952	          2.91144792	
        325.02000000	        -16.90593547	         11.96046367	        -14.01721834	         -7.82036939	         23.68359952	          2.91144792	
        325.03000000	        -44.34577705	         16.86370047	        -14.01721834	         -7.82036939	         23.68359952	          2.91144792	
        325.04000000	        -38.85780873	         16.86370047	        -14.01721834	         -7.82036939	         23.68359952	          2.91144792	
        325.05000000	        -33.36984042	         16.86370047	        -14.01721834	         -7.82036939	         23.68359952	          2.91144792	
        325.06000000	        -27.88187210	         16.86370047	        -14.01721834	         -7.82036939	         23.68359952	          2.91144792	
        325.07000000	        -22.39390379	         16.86370047	        -14.01721834	         -7.82036939	         23.68359952	          2.91144792	
        325.08000000	        -16.90593547	         16.86370047	        -14.01721834	         -7.82036939	         23.68359952	          2.91144792	
        325.09000000	        -44.34577705	         -7.65248351	         -5.58217594	         -7.82036939	         23.68359952	          2.91144792	
        325.10000000	        -38.85780873	         -7.65248351	         -5.58217594	         -7.82036939	         23.68359952	          2.91144792	
        325.11000000	        -33.36984042	         -7.65248351	         -5.58217594	         -7.82036939	         23.68359952	          2.91144792	
        325.12000000	        -27.88187210	         -7.65248351	         -5.58217594	         -7.82036939	         23.68359952	          2.91144792	
        325.13000000	        -22.39390379	         -7.65248351	         -5.58217594	         -7.82036939	         23.68359952	          2.91144792	
        325.14000000	        -16.90593547	         -7.65248351	         -5.58217594	         -7.82036939	         23.68359952	          2.91144792	
        325.15000000	        -44.34577705	         -2.74924671	         -5.58217594	         -7.82036939	         23.68359952	          2.91144792	
        325.16000000	        -38.85780873	         -2.74924671	         -5.58217594	         -7.82036939	         23.68359952	          2.91144792	
        325.17000000	        -33.36984042	         -2.74924671	         -5.58217594	         -7.82036939	         23.68359952	          2.91144792	
        325.18000000	        -27.88187210	         -2.74924671	         -5.58217594	         -7.82036939	         23.68359952	          2.91144792	
        325.19000000	        -22.39390379	         -2.74924671	         -5.58217594	         -7.82036939	         23.68359952	          2.91144792	
        325.20000000	        -16.90593547	         -2.74924671	         -5.58217594	         -7.82036939	         23.68359952	          2.91144792	
        325.21000000	        -44.34577705	          2.15399008	         -5.58217594	         -7.82036939	         23.68359952	          2.91144792	
        325.22000000	        -38.85780873	          2.15399008	         -5.58217594	         -7.82036939	         23.68359952	          2.91144792	
        325.23000000	        -33.36984042	          2.15399008	         -5.58217594	         -7.82036939	         23.68359952	          2.91144792	
        325.24000000	        -27.88187210	          2.15399008	         -5.58217594	         -7.82036939	         23.68359952	          2.91144792	
        325.25000000	        -22.39390379	          2.15399008	         -5.58217594	         -7.82036939	         23.68359952	          2.91144792	
        325.26000000	        -16.90593547	          2.15399008	         -5.58217594	         -7.82036939	         23.68359952	          2.91144792	
        325.27000000	        -44.34577705	          7.05722688	         -5.58217594	         -7.82036939	         23.68359952	          2.91144792	
        325.28000000	        -38.85780873	          7.05722688	         -5.58217594	         -7.82036939	         23.68359952	          2.91144792	
        325.29000000	        -33.36984042	          7.05722688	         -5.58217594	         -7.82036939	         23.68359952	          2.91144792	
        325.30000000	        -27.88187210	          7.05722688	         -5.58217594	         -7.82036939	         23.68359952	          2.91144792	
        325.31000000	        -22.39390379	          7.05722688	         -5.58217594	         -7.82036939	         23.68359952	          2.91144792	
        325.32000000	        -16.90593547	          7.05722688	         -5.58217594	         -7.82036939	         23.68359952	          2.91144792	
        325.33000000	        -44.34577705	         11.96046367	         -5.58217594	         -7.82036939	         23.68359952	          2.91144792	
        325.34000000	        -38.85780873	         11.96046367	         -5.58217594	         -7.82036939	         23.68359952	          2.91144792	
        325.35000000	        -33.36984042	         11.96046367	         -5.58217594	         -7.82036939	         23.68359952	          2.91144792	
        325.36000000	        -27.88187210	         11.96046367	         -5.58217594	         -7.82036939	         23.68359952	          2.91144792	
        325.37000000	        -22.39390379	         11.96046367	         -5.58217594	         -7.82036939	         23.68359952	          2.91144792	
        325.38000000	        -16.90593547	         11.96046367	         -5.58217594	         -7.82036939	         23.68359952	          2.91144792	
        325.39000000	        -44.34577705	         16.86370047	         -5.58217594	         -7.82036939	         23.68359952	          2.91144792	
        325.40000000	        -38.85780873	         16.86370047	         -5.58217594	         -7.82036939	         23.68359952	          2.91144792	
        325.41000000	        -33.36984042	         16.86370047	         -5.58217594	         -7.82036939	         23.68359952	          2.91144792	
        325.42000000	        -27.88187210	         16.86370047	         -5.58217594	         -7.82036939	         23.68359952	          2.91144792	
        325.43000000	        -22.39390379	         16.86370047	         -5.58217594	         -7.82036939	         23.68359952	          2.91144792	
        325.44000000	        -16.90593547	         16.86370047	         -5.58217594	         -7.82036939	         23.68359952	          2.91144792	
        325.45000000	        -44.34577705	         -7.65248351	          2.85286645	         -7.82036939	         23.68359952	          2.91144792	
        325.46000000	        -38.85780873	         -7.65248351	          2.85286645	         -7.82036939	         23.68359952	          2.91144792	
        325.47000000	        -33.36984042	         -7.65248351	          2.85286645	         -7.82036939	         23.68359952	          2.91144792	
        325.48000000	        -27.88187210	         -7.65248351	          2.85286645	         -7.82036939	         23.68359952	          2.91144792	
        325.49000000	        -22.39390379	         -7.65248351	          2.85286645	         -7.82036939	         23.68359952	          2.91144792	
        325.50000000	        -16.90593547	         -7.65248351	          2.85286645	         -7.82036939	         23.68359952	          2.91144792	
        325.51000000	        -44.34577705	         -2.74924671	          2.85286645	         -7.82036939	         23.68359952	          2.91144792	
        325.52000000	        -38.85780873	         -2.74924671	          2.85286645	         -7.82036939	         23.68359952	          2.91144792	
        325.53000000	        -33.36984042	         -2.74924671	          2.85286645	         -7.82036939	         23.68359952	          2.91144792	
        325.54000000	        -27.88187210	         -2.74924671	          2.85286645	         -7.82036939	         23.68359952	          2.91144792	
        325.55000000	        -22.39390379	         -2.74924671	          2.85286645	         -7.82036939	         23.68359952	          2.91144792	
        325.56000000	        -16.90593547	         -2.74924671	          2.85286645	         -7.82036939	         23.68359952	          2.91144792	
        325.57000000	        -44.34577705	          2.15399008	          2.85286645	         -7.82036939	         23.68359952	          2.91144792	
        325.58000000	        -38.85780873	          2.15399008	          2.85286645	         -7.82036939	         23.68359952	          2.91144792	
        325.59000000	        -33.36984042	          2.15399008	          2.85286645	         -7.82036939	         23.68359952	          2.91144792	
        325.60000000	        -27.88187210	          2.15399008	          2.85286645	         -7.82036939	         23.68359952	          2.91144792	
        325.61000000	        -22.39390379	          2.15399008	          2.85286645	         -7.82036939	         23.68359952	          2.91144792	
        325.62000000	        -16.90593547	          2.15399008	          2.85286645	         -7.82036939	         23.68359952	          2.91144792	
        325.63000000	        -44.34577705	          7.05722688	          2.85286645	         -7.82036939	         23.68359952	          2.91144792	
        325.64000000	        -38.85780873	          7.05722688	          2.85286645	         -7.82036939	         23.68359952	          2.91144792	
        325.65000000	        -33.36984042	          7.05722688	          2.85286645	         -7.82036939	         23.68359952	          2.91144792	
        325.66000000	        -27.88187210	          7.05722688	          2.85286645	         -7.82036939	         23.68359952	          2.91144792	
        325.67000000	        -22.39390379	          7.05722688	          2.85286645	         -7.82036939	         23.68359952	          2.91144792	
        325.68000000	        -16.90593547	          7.05722688	          2.85286645	         -7.82036939	         23.68359952	          2.91144792	
        325.69000000	        -44.34577705	         11.96046367	          2.85286645	         -7.82036939	         23.68359952	          2.91144792	
        325.70000000	        -38.85780873	         11.96046367	          2.85286645	         -7.82036939	         23.68359952	          2.91144792	
        325.71000000	        -33.36984042	         11.96046367	          2.85286645	         -7.82036939	         23.68359952	          2.91144792	
        325.72000000	        -27.88187210	         11.96046367	          2.85286645	         -7.82036939	         23.68359952	          2.91144792	
        325.73000000	        -22.39390379	         11.96046367	          2.85286645	         -7.82036939	         23.68359952	          2.91144792	
        325.74000000	        -16.90593547	         11.96046367	          2.85286645	         -7.82036939	         23.68359952	          2.91144792	
        325.75000000	        -44.34577705	         16.86370047	          2.85286645	         -7.82036939	         23.68359952	          2.91144792	
        325.76000000	        -38.85780873	         16.86370047	          2.85286645	         -7.82036939	         23.68359952	          2.91144792	
        325.77000000	        -33.36984042	         16.86370047	          2.85286645	         -7.82036939	         23.68359952	          2.91144792	
        325.78000000	        -27.88187210	         16.86370047	          2.85286645	         -7.82036939	         23.68359952	          2.91144792	
        325.79000000	        -22.39390379	         16.86370047	          2.85286645	         -7.82036939	         23.68359952	          2.91144792	
        325.80000000	        -16.90593547	         16.86370047	          2.85286645	         -7.82036939	         23.68359952	          2.91144792	
        325.81000000	        -44.34577705	         -7.65248351	         11.28790885	         -7.82036939	         23.68359952	          2.91144792	
